# xmcd
#
# Track frame offsets:
#	150
#	19180
#	35252
#	48732
#	67170
#	81627
#	95012
#	113130
#	133817
#	151312
#	167542
#	182237
#
# Disc length: 2586 seconds
#
# Revision: 1
# Processed by: cddbd v1.5.2PL0 Copyright (c) Steve Scherf et al.
# Submitted via: audiograbber 1.83.01
#
DISCID=a90a180c
DTITLE=The Buffalo´s - Country Style
DYEAR=1900
DGENRE=
TTITLE0=Sometimes love just ain´t enough
TTITLE1=I would feel fine
TTITLE2=The Buffalo´s
TTITLE3=My dream
TTITLE4=Folsom prison blues
TTITLE5=Arizona gambling
TTITLE6=Heart trouble
TTITLE7=Mama he is crazy
TTITLE8=You´re so good
TTITLE9=Let´s take a walk at midnight
TTITLE10=I´m a full grown woman
TTITLE11=For your smile
EXTD=
EXTT0=
EXTT1=
EXTT2=
EXTT3=
EXTT4=
EXTT5=
EXTT6=
EXTT7=
EXTT8=
EXTT9=
EXTT10=
EXTT11=
PLAYORDER=
